<?xml version="1.0" encoding="UTF-8"?>
<svg id="_x30_4" xmlns="http://www.w3.org/2000/svg" version="1.1" viewBox="0 0 2048 2048">
  <!-- Generator: Adobe Illustrator 29.5.1, SVG Export Plug-In . SVG Version: 2.1.0 Build 141)  -->
  <defs>
    <style>
      .st0 {
        fill: #007bff;
      }
    </style>
  </defs>
  <path class="st0" d="M1256.79,1045.48l-561.91,350.26c-4.33,2.7-9.16,4.02-14.06,4.02s-9.29-1.22-13.49-3.65c-8.48-5-13.55-14.36-13.08-24.17,7.91-160.51,124.72-320.42,297.67-407.38,39.48-19.81,80.04-34.68,120.46-44.18l-387.78-116.95-209.66-63.24c-1.52-.44-3.01-1.05-4.39-1.79-8.18-4.19-13.72-12.4-14.4-21.8-.81-10.95,5.31-21.29,15.28-25.92,47.69-22.14,97.78-39.48,149.16-51.75,60.1-14.33,121.88-21.7,183.43-21.7,52.32,0,103.9,5.34,153.35,15.78,13.82,2.91,27.48,6.22,40.93,9.9,33.6,9.23,65.98,20.85,96.63,34.85,35.46,16.16,68.24,35.39,97.82,57.22l-15.68-34.68-72.13-159.47-114.65-253.43c-4.73-10.51-2.16-22.85,6.32-30.59,5.07-4.6,11.42-6.93,17.91-6.93,4.53,0,9.02,1.12,13.18,3.45,90.18,51.44,168.46,117.79,229.09,192.62,46.1,56.88,82.03,118.67,105.25,182.52,16.36,44.92,26.23,90.99,29.54,136.52,22.88-25.55,48.98-46,76.96-60.1,25.76-12.95,51.88-19.98,77.84-20.89,1.96-.07,3.92-.1,5.88-.1,36.03,0,70.34,11.96,99.57,34.24,10.24,7.81,19.84,16.87,28.66,27.14,5.07,5.91,7.33,13.72,6.19,21.36-.27,1.79-.71,3.48-1.35,5.14-1.83,5-5.14,9.36-9.5,12.51-.44.3-.91.61-1.39.91l-44.21,27.55-51.68,32.21-53.61,33.39v.03c12.45,2.64,24.51,6.6,36.03,11.91,7.71,3.52,15.07,7.54,22.1,12.1,49.25,32.01,80.98,88.99,88.28,160.18.91,8.82-2.67,17.54-9.53,23.19-4.83,3.95-10.82,6.08-16.87,6.08-2.6,0-5.17-.37-7.74-1.15l-61.35-18.49-63.64-19.2c7.23,12.2,13.42,25.28,18.45,39.11,13.62,37.52,18.42,79.19,14.53,122.73-3.48,39.48-14.09,80.48-31.74,121.27-3.82,8.79-12.07,14.84-21.5,15.82-.88.1-1.76.17-2.64.17h-.2c-10.48,0-19.94-6.12-24.23-15.62l-80.78-178.56c-.07.02.02,0-.05.01.52,10.99.79,22.05.79,33.15,0,316.06-214.59,582.03-505.98,660.14-.13.03-.27.07-.41.1-6.25,1.56-12.52,3.06-18.81,4.49-25.22,5.74-21.21,42.88,4.66,42.93.66,0,1.32,0,1.99,0,514.39,0,931.41-417.02,931.41-931.41,0-8.04-.1-16.05-.3-24.03v-.1c.2-6.93.3-13.69.3-20.25,0-152.44-43.8-298.14-125.43-422.76-.03-.07-.1-.17-.13-.24-28.9-44.07-62.53-85.51-100.62-123.67-116.24-116.44-263.13-191.34-422.49-217.06-40.49-6.52-81.83-9.9-123.67-9.97h-1.39c-323.76,0-602.24,200.53-717.32,483.91-36.1,88.82-56.11,185.76-56.45,287.26-.14,50.43,4.53,99.07,13.99,145.64,13.59,66.99,37.04,129.82,70.2,187.82,33.06,57.76,76.32,111.84,129.32,161.7,20.69,19.47,42.86,38.26,66.48,56.38,7.13,5,14.4,9.8,21.8,14.43,73.34,45.76,159.97,72.23,252.82,72.23,22.27,0,44.21-1.55,65.71-4.5,233.01-32.01,412.49-231.93,412.49-473.73,0-16.6-.84-32.99-2.5-49.14l-23.76,14.23Z"/>
</svg>