<svg width="24" height="24" viewBox="0 0 320 320" version="1.1" xmlns="http://www.w3.org/2000/svg" desc="Created with imagetracer.js version 1.2.6" ><path fill="rgb(210,210,210)" stroke="rgb(210,210,210)" stroke-width="1" opacity="1" d="M 188.5 67 L 204.5 68 L 207.5 70 L 211.5 70 L 216.5 72 Q 229.2 78.3 238 88.5 L 248 103.5 L 248 106.5 L 250 108.5 Q 249.2 113.8 252 115.5 L 252 144 L 255.5 144 L 265.5 150 L 276 160.5 L 284 176.5 L 286 195.5 L 284 201.5 L 284 207.5 L 282 209.5 L 282 212.5 L 278 220.5 L 267.5 232 L 264.5 234 L 259.5 238 L 244.5 244 L 234.5 244 L 233.5 245 L 176.5 245 L 174 242.5 L 174 209.5 L 176.5 207 L 208 207 L 202 198 Q 199.3 199.1 200 196.5 L 188 182 Q 185.3 183.1 186 180.5 L 174 166 Q 171.3 167.1 172 164.5 L 160 150 L 157.5 149 L 144 166 Q 141.3 164.9 142 167.5 L 109 206.5 L 137.5 207 L 140 208 L 140 243.5 L 138.5 245 L 79.5 245 L 78.5 244 L 68.5 244 L 53.5 238 L 40 226.5 L 34 218.5 L 28 202.5 L 28 182.5 L 34 166.5 L 45.5 152 L 58 143.5 L 58 127.5 Q 60.7 125.2 60 119.5 Q 65.1 106.1 75.5 98 L 84.5 92 Q 89.1 92.6 90.5 90 L 108.5 89 Q 110 91.5 115.5 90 L 117.5 92 L 124.5 94 L 133.5 102 L 138 94.5 L 149.5 82 L 157.5 76 L 169.5 70 Q 174.8 70.8 176.5 68 L 187.5 68 L 188.5 67 Z M 180 69 L 167 73 L 151 83 L 139 96 L 135 103 L 133 103 L 127 97 L 120 93 Q 115 94 114 91 L 105 91 L 104 90 L 93 91 Q 91 94 87 93 L 77 99 Q 68 106 63 116 L 59 135 L 60 136 L 60 145 L 53 149 Q 50 148 51 151 L 45 155 L 33 172 L 29 187 L 29 197 L 31 208 Q 34 209 33 214 L 41 226 L 55 237 L 71 243 L 139 243 L 139 209 L 108 209 Q 105 208 107 207 Q 106 204 109 205 L 119 193 Q 118 190 121 191 L 125 185 L 141 167 Q 140 164 143 165 L 153 153 Q 152 150 155 151 L 158 147 Q 160 146 159 149 L 161 149 L 173 164 Q 172 166 175 165 L 187 180 Q 186 182 189 181 L 201 196 Q 200 198 203 197 L 211 208 L 210 209 L 177 209 L 175 211 L 175 242 L 177 243 L 243 243 L 255 239 L 264 233 Q 266 234 265 231 L 273 225 Q 272 222 275 223 L 281 212 L 284 197 L 283 180 L 281 173 L 275 162 Q 267 149 251 145 L 250 143 L 251 139 L 251 120 Q 248 117 249 111 Q 245 98 237 90 Q 227 77 210 71 Q 204 72 202 69 L 180 69 Z " /><path fill="rgb(255,255,255)" stroke="rgb(255,255,255)" stroke-width="1" opacity="1" d="M 0 0 L 320 0 L 320 320 L 0 320 L 0 0 Z M 189 67 L 188 68 L 177 68 Q 175 71 170 70 L 158 76 L 150 82 L 138 95 L 134 102 L 125 94 L 118 92 L 116 90 Q 110 92 109 89 L 91 90 Q 89 93 85 92 L 76 98 Q 65 106 60 120 Q 61 125 58 128 L 58 144 L 46 152 L 34 167 L 28 183 L 28 203 L 34 219 L 40 227 L 54 238 L 69 244 L 79 244 L 80 245 L 139 245 L 140 244 L 140 208 L 138 207 L 109 207 L 142 168 Q 141 165 144 166 L 158 149 L 160 150 L 172 165 Q 171 167 174 166 L 186 181 Q 185 183 188 182 L 200 197 Q 199 199 202 198 L 208 207 L 177 207 L 174 210 L 174 243 L 177 245 L 234 245 L 235 244 L 245 244 L 260 238 L 265 234 L 268 232 L 278 221 L 282 213 L 282 210 L 284 208 L 284 202 L 286 196 L 284 177 L 276 161 L 266 150 L 256 144 L 252 144 L 252 116 Q 249 114 250 109 L 248 107 L 248 104 L 238 89 Q 229 78 217 72 L 212 70 L 208 70 L 205 68 L 189 67 Z " /><path fill="rgb(48,48,48)" stroke="rgb(48,48,48)" stroke-width="1" opacity="1" d="M 179.5 69 L 201.5 69 Q 203.8 71.7 209.5 71 Q 226.6 76.9 237 89.5 Q 244.9 98.1 249 110.5 Q 248.4 116.6 251 119.5 L 251 138.5 L 250 142.5 L 251 145 Q 266.6 149.2 275 161.5 L 281 172.5 L 283 179.5 L 284 196.5 L 281 211.5 L 275 223 Q 272.3 221.9 273 224.5 L 265 231 Q 266.1 233.7 263.5 233 L 254.5 239 L 242.5 243 L 176.5 243 L 175 241.5 L 175 210.5 L 176.5 209 L 209.5 209 L 211 207.5 L 203 197 Q 200.3 198.1 201 195.5 L 189 181 Q 186.3 182.1 187 179.5 L 175 165 Q 172.3 166.1 173 163.5 L 161 149 L 159 149 Q 160.1 146.3 157.5 147 L 155 151 Q 152.3 149.9 153 152.5 L 143 165 Q 140.3 163.9 141 166.5 L 125 184.5 L 121 191 Q 118.3 189.9 119 192.5 L 109 205 Q 106.3 203.9 107 206.5 Q 104.8 207.8 107.5 209 L 139 209 L 139 243 L 70.5 243 L 54.5 237 L 41 225.5 L 33 213.5 Q 33.6 208.9 31 207.5 L 29 196.5 L 29 186.5 L 33 171.5 L 44.5 155 L 51 151 Q 49.9 148.3 52.5 149 L 60 145 L 60 135.5 L 59 134.5 L 63 115.5 Q 68.3 105.8 76.5 99 L 86.5 93 Q 91.1 93.6 92.5 91 L 103.5 90 L 104.5 91 L 113.5 91 Q 114.9 93.6 119.5 93 L 126.5 97 L 132.5 103 L 134.5 103 L 139 95.5 L 150.5 83 L 166.5 73 L 179.5 69 Z M 182 70 L 179 72 L 173 72 Q 172 75 168 74 L 152 84 L 144 92 L 135 105 L 132 104 L 123 96 L 112 92 L 94 92 L 78 100 Q 69 107 64 118 Q 65 122 62 123 L 62 133 L 61 134 L 62 145 L 52 151 L 36 169 L 32 179 L 31 192 L 30 193 L 34 213 L 42 225 L 56 236 L 74 242 L 138 242 L 138 210 L 106 210 L 104 209 L 157 146 L 162 148 L 174 163 Q 173 165 176 164 L 188 179 Q 187 181 190 180 L 202 195 Q 201 197 204 196 L 212 207 L 211 210 L 177 210 L 177 242 L 240 242 L 254 238 L 264 232 L 276 219 L 282 204 L 282 182 Q 279 180 280 174 L 274 163 Q 266 151 251 146 L 248 143 L 250 136 L 250 124 L 248 118 L 248 113 L 246 110 L 246 106 L 236 91 L 225 80 L 214 74 L 198 70 L 182 70 Z " /><path fill="rgb(0,0,0)" stroke="rgb(0,0,0)" stroke-width="1" opacity="1" d="M 181.5 70 L 197.5 70 L 213.5 74 L 224.5 80 L 236 90.5 L 246 105.5 L 246 109.5 L 248 112.5 L 248 117.5 L 250 123.5 L 250 135.5 L 248 142.5 L 250.5 146 Q 265.9 150.6 274 162.5 L 280 173.5 Q 279 179.5 282 181.5 L 282 203.5 L 276 218.5 L 263.5 232 L 253.5 238 L 239.5 242 L 177 242 L 177 210 L 210.5 210 L 212 206.5 L 204 196 Q 201.3 197.1 202 194.5 L 190 180 Q 187.3 181.1 188 178.5 L 176 164 Q 173.3 165.1 174 162.5 L 162 148 L 156.5 146 L 104 208.5 L 105.5 210 L 138 210 L 138 242 L 73.5 242 L 55.5 236 L 42 224.5 L 34 212.5 L 30 192.5 L 31 191.5 L 32 178.5 L 36 168.5 L 51.5 151 L 62 144.5 L 61 133.5 L 62 132.5 L 62 122.5 Q 64.8 121.8 64 117.5 Q 68.8 106.8 77.5 100 L 93.5 92 L 111.5 92 L 122.5 96 L 131.5 104 L 134.5 105 L 144 91.5 L 151.5 84 L 167.5 74 Q 171.8 74.8 172.5 72 L 178.5 72 L 181.5 70 Z " /></svg>