<svg width="24" height="24" viewBox="0 0 24 24" fill="none" xmlns="http://www.w3.org/2000/svg">
<path d="M2.25 5C2.25 4.27065 2.53973 3.57118 3.05546 3.05546C3.57118 2.53973 4.27065 2.25 5 2.25H6.625C7.35435 2.25 8.05382 2.53973 8.56954 3.05546C9.08527 3.57118 9.375 4.27065 9.375 5V12C9.375 12.6962 9.65156 13.3639 10.1438 13.8562C10.6361 14.3484 11.3038 14.625 12 14.625C12.6962 14.625 13.3639 14.3484 13.8562 13.8562C14.3484 13.3639 14.625 12.6962 14.625 12V5C14.625 4.27065 14.9147 3.57118 15.4305 3.05546C15.9462 2.53973 16.6457 2.25 17.375 2.25H19C19.7293 2.25 20.4288 2.53973 20.9445 3.05546C21.4603 3.57118 21.75 4.27065 21.75 5V12C21.75 17.385 17.385 21.75 12 21.75C6.615 21.75 2.25 17.385 2.25 12V5ZM5 3.75C4.31 3.75 3.75 4.31 3.75 5V6.75H7.875V5C7.875 4.31 7.315 3.75 6.625 3.75H5ZM16.125 6.75H20.25V5C20.25 4.31 19.69 3.75 19 3.75H17.375C16.685 3.75 16.125 4.31 16.125 5V6.75Z" fill="black"/>
</svg>
