<?xml version="1.0" encoding="UTF-8"?>
<svg id="Layer_1" data-name="Layer 1" xmlns="http://www.w3.org/2000/svg" version="1.1" viewBox="0 0 1080 1080">
  <defs>
    <style>
      .cls-1 {
        fill: #007bff;
      }

      .cls-1, .cls-2 {
        stroke-width: 0px;
      }

      .cls-2 {
        fill: #fff;
      }
    </style>
  </defs>
  <rect class="cls-1" x="-.49" y="-.27" width="1080" height="1080"/>
  <path class="cls-2" d="M685.96,898.73c-3.26,0-6.53-.14-9.81-.43-18.95-1.66-37.17-8.2-54.14-19.46-54.21-35.95-82.43-94.11-83.88-172.88,0-.19,0-.38,0-.58-55.98-8.47-114.96-23.69-154.92-43.87-62.67-31.64-101.27-81.61-103.24-133.65-.52-13.67,1.39-29.89,8.58-47.24-12.07-5.27-24.31-11.51-35.99-18.85-48.58-30.52-74.18-71.99-74.03-119.94.09-28.4,13.59-55.7,39.04-78.95,66.36-60.61,213.43-94.13,357.67-81.51,43.05,3.76,84.7,11.44,123.81,22.81,32.47,9.44,62.49,21.25,89.23,35.09,42.26,21.88,73.36,58.95,87.57,104.36,8.99,28.74,15.41,60.35,19.07,93.95,4.09,37.57,4.71,76.12,1.85,114.55-.21,2.8-.64,8.4-.87,11.2-3.49,42.16-11.17,83.86-22.83,123.93-16.86,57.97-41.28,108-70.62,144.69-35.07,43.85-75.15,66.77-116.47,66.77ZM591.64,711.49c2.33,58.28,21.44,97.44,59.84,122.9,9.47,6.28,19.34,9.91,29.32,10.78,33.04,2.89,61.74-23.7,79.98-46.52,25.02-31.29,46.13-74.95,61.06-126.28,10.66-36.66,17.69-74.82,20.88-113.43.22-2.68.64-8.07.84-10.76,2.62-35.2,2.05-70.47-1.69-104.82-3.28-30.17-8.99-58.36-16.95-83.8-9.93-31.74-31.67-57.64-61.2-72.93-23.67-12.26-50.45-22.77-79.59-31.24-35.77-10.4-73.98-17.43-113.56-20.89-63.07-5.52-130.17-1.38-188.96,11.65-56.77,12.59-102.26,32.51-128.09,56.11-14.34,13.1-21.64,26.47-21.68,39.74-.15,48.47,45.93,77.44,87.36,93.67,11.69-11.87,26.61-23.71,45.56-35.16,87.29-52.72,185.51-52.33,223.69-49.71,28.04,1.92,51.28,8,69.07,18.05,23.22,13.13,36.32,33.14,36.88,56.33.5,20.76-8.38,39.36-25.69,53.79-26.96,22.48-74.86,35.25-142.37,37.93-53.27,2.12-114.26-2.68-163.16-12.83-6.57-1.36-14.78-3.26-24.07-5.79-4.01,8.53-6.24,17.73-5.87,27.55,1.21,31.89,29.56,65.64,73.98,88.07,33.73,17.03,86.68,30.59,137.19,38.4,1.96-9.81,4.11-18.73,6.03-25.27,6.89-23.47,20.14-55.18,44.16-72.98,17.25-12.78,37.12-19.14,57.51-18.36,45.98,1.74,83.36,39.13,85.11,85.1.93,24.53-8.82,47.63-27.46,65.05-17.02,15.91-39.61,25.39-63.6,26.68-15.73.85-34.34.47-54.53-1.03ZM597.61,658.42c17.02,1.23,32.62,1.55,45.69.84,20.17-1.09,41.44-15.34,40.64-36.46-.69-18.28-15.56-33.14-33.83-33.83-10.29-.38-18.57,4.09-23.73,7.92-9.06,6.71-18.53,24.01-24.73,45.14-1.33,4.53-2.72,10.22-4.03,16.38ZM381.25,453.3c43.59,8.33,96.42,12.17,142.98,10.32,53.14-2.11,93.36-11.45,110.33-25.6,6.67-5.56,6.58-9.45,6.53-11.54-.22-9.16-21.33-20.07-56.28-22.47-33.12-2.27-118.19-2.7-192.47,42.16-3.64,2.2-7.36,4.58-11.09,7.14Z"/>
</svg>