<svg width="24" height="24" viewBox="0 0 24 24" fill="none" xmlns="http://www.w3.org/2000/svg">
<path d="M8.46399 6.707C8.27652 6.51947 8.1712 6.26516 8.1712 6C8.1712 5.73483 8.27652 5.48052 8.46399 5.293L11.222 2.535C11.3241 2.4328 11.4454 2.35173 11.5789 2.29641C11.7124 2.2411 11.8555 2.21263 12 2.21263C12.1445 2.21263 12.2876 2.2411 12.4211 2.29641C12.5546 2.35173 12.6758 2.4328 12.778 2.535L15.535 5.293C15.6305 5.38524 15.7067 5.49559 15.7591 5.61759C15.8115 5.7396 15.8391 5.87082 15.8402 6.0036C15.8414 6.13637 15.8161 6.26805 15.7658 6.39095C15.7155 6.51385 15.6413 6.6255 15.5474 6.71939C15.4535 6.81328 15.3418 6.88754 15.2189 6.93782C15.096 6.9881 14.9644 7.0134 14.8316 7.01225C14.6988 7.01109 14.5676 6.98351 14.4456 6.9311C14.3236 6.87869 14.2132 6.80251 14.121 6.707L13 5.586V11H18.414L17.293 9.879C17.1053 9.69149 16.9999 9.43712 16.9998 9.17185C16.9997 8.90658 17.105 8.65214 17.2925 8.4645C17.48 8.27686 17.7344 8.17139 17.9996 8.17129C18.2649 8.1712 18.5193 8.27649 18.707 8.464L21.465 11.222C21.5672 11.3241 21.6483 11.4454 21.7036 11.5789C21.7589 11.7124 21.7874 11.8555 21.7874 12C21.7874 12.1445 21.7589 12.2876 21.7036 12.4211C21.6483 12.5546 21.5672 12.6758 21.465 12.778L18.707 15.536C18.5193 15.7235 18.2649 15.8288 17.9996 15.8287C17.7344 15.8286 17.48 15.7231 17.2925 15.5355C17.105 15.3479 16.9997 15.0934 16.9998 14.8281C16.9999 14.5629 17.1053 14.3085 17.293 14.121L18.414 13H13V18.414L14.121 17.293C14.3096 17.1108 14.5622 17.01 14.8244 17.0123C15.0866 17.0146 15.3374 17.1198 15.5228 17.3052C15.7082 17.4906 15.8134 17.7414 15.8157 18.0036C15.8179 18.2658 15.7171 18.5184 15.535 18.707L12.778 21.465C12.6758 21.5672 12.5546 21.6483 12.4211 21.7036C12.2876 21.7589 12.1445 21.7874 12 21.7874C11.8555 21.7874 11.7124 21.7589 11.5789 21.7036C11.4454 21.6483 11.3241 21.5672 11.222 21.465L8.46399 18.707C8.37114 18.6141 8.29751 18.5038 8.24729 18.3824C8.19706 18.2611 8.17124 18.131 8.17129 17.9996C8.17133 17.8683 8.19725 17.7382 8.24756 17.6169C8.29786 17.4956 8.37158 17.3853 8.46449 17.2925C8.5574 17.1997 8.66769 17.126 8.78905 17.0758C8.91042 17.0256 9.04049 16.9997 9.17184 16.9998C9.30319 16.9998 9.43324 17.0258 9.55458 17.0761C9.67591 17.1264 9.78614 17.2001 9.87899 17.293L10.999 18.414V13H5.58699L6.70799 14.121C6.8009 14.2138 6.87461 14.3241 6.92492 14.4454C6.97523 14.5667 7.00114 14.6968 7.00119 14.8281C7.00124 14.9595 6.97541 15.0896 6.92519 15.2109C6.87497 15.3323 6.80133 15.4426 6.70849 15.5355C6.61564 15.6284 6.50541 15.7021 6.38408 15.7524C6.26274 15.8027 6.13269 15.8287 6.00134 15.8287C5.86999 15.8287 5.73992 15.8029 5.61855 15.7527C5.49719 15.7025 5.3869 15.6288 5.29399 15.536L2.53599 12.778C2.43379 12.6758 2.35272 12.5546 2.2974 12.4211C2.24209 12.2876 2.21362 12.1445 2.21362 12C2.21362 11.8555 2.24209 11.7124 2.2974 11.5789C2.35272 11.4454 2.43379 11.3241 2.53599 11.222L5.29399 8.464C5.48176 8.27662 5.73628 8.17151 6.00155 8.17179C6.26682 8.17208 6.52111 8.27772 6.70849 8.4655C6.89586 8.65327 7.00097 8.90779 7.00069 9.17306C7.00041 9.43833 6.89476 9.69262 6.70699 9.88L5.58599 11H11V5.587L9.87899 6.707C9.78611 6.79997 9.67583 6.87373 9.55443 6.92406C9.43303 6.97438 9.3029 7.00028 9.17149 7.00028C9.04007 7.00028 8.90995 6.97438 8.78855 6.92406C8.66715 6.87373 8.55686 6.79997 8.46399 6.707Z" fill="black"/>
</svg>
