<svg width="24" height="24" viewBox="0 0 24 24" fill="none" xmlns="http://www.w3.org/2000/svg">
<path d="M19 19.0003V17.7239C18.3211 18.5351 17.5033 19.2288 16.5752 19.7649C14.8469 20.7634 12.838 21.1659 10.8584 20.9104C8.87883 20.655 7.03839 19.7553 5.62012 18.3509C4.29037 17.0341 3.40064 15.3417 3.06836 13.5062L3.00977 13.138L3.00098 13.0355C2.98239 12.529 3.34953 12.0803 3.8623 12.0091C4.37524 11.9378 4.85167 12.2694 4.97168 12.762L4.99023 12.8626L5.03613 13.1497C5.29536 14.582 5.9898 15.9025 7.02734 16.93C8.13389 18.0257 9.5698 18.7278 11.1143 18.9271C12.6588 19.1263 14.2258 18.8115 15.5742 18.0325C16.4611 17.5202 17.2199 16.8248 17.8066 16.0003H16C15.4478 16.0003 15.0002 15.5524 15 15.0003C15 14.448 15.4477 14.0003 16 14.0003H19.4785C19.4905 14 19.5026 14.0001 19.5146 14.0003H20C20.5523 14.0003 21 14.448 21 15.0003V19.0003C20.9998 19.5524 20.5522 20.0003 20 20.0003C19.4478 20.0003 19.0002 19.5524 19 19.0003ZM7.4248 4.23565C9.15315 3.23716 11.162 2.8347 13.1416 3.09014C15.1211 3.34556 16.9616 4.2444 18.3799 5.64873C19.7095 6.96547 20.5993 8.65801 20.9316 10.4935L20.9902 10.8626L20.999 10.9642C21.0178 11.4707 20.6506 11.9192 20.1377 11.9905C19.6249 12.0618 19.1486 11.7308 19.0283 11.2386L19.0098 11.138L18.9639 10.8499C18.7046 9.41781 18.0101 8.097 16.9727 7.06963C15.8661 5.97404 14.4301 5.27282 12.8857 5.07354C11.3413 4.87425 9.77421 5.18817 8.42578 5.96709C7.53864 6.4796 6.77916 7.17538 6.19238 8.00029H8C8.55228 8.00029 9 8.44801 9 9.00029C8.99984 9.55244 8.55219 10.0003 8 10.0003H4C3.44781 10.0003 3.00016 9.55244 3 9.00029V5.00029C3 4.44801 3.44772 4.00029 4 4.00029C4.55228 4.00029 5 4.44801 5 5.00029V6.27471C5.67867 5.46393 6.49713 4.77161 7.4248 4.23565Z" fill="black"/>
</svg>
