<svg width="24" height="24" viewBox="0 0 24 24" fill="none" xmlns="http://www.w3.org/2000/svg">
<path d="M22 8.60352C22 9.1558 21.5523 9.60352 21 9.60352C20.4477 9.60352 20 9.1558 20 8.60352V5.41406L5.41406 20H8.60352L8.70605 20.0049C9.21041 20.056 9.60352 20.4822 9.60352 21C9.60352 21.5178 9.21041 21.944 8.70605 21.9951L8.60352 22H3C2.44772 22 2 21.5523 2 21V15.3965C2 14.8442 2.44772 14.3965 3 14.3965C3.55228 14.3965 4 14.8442 4 15.3965V18.5859L18.5859 4H15.3965C14.8442 4 14.3965 3.55228 14.3965 3C14.3965 2.44772 14.8442 2 15.3965 2H21L21.1025 2.00488C21.6067 2.05621 22 2.48232 22 3V8.60352Z" fill="black"/>
</svg>
