<svg width="24" height="24" viewBox="0 0 24 24" fill="none" xmlns="http://www.w3.org/2000/svg">
<path d="M12 13.5C12.8284 13.5 13.5 12.8284 13.5 12C13.5 11.1716 12.8284 10.5 12 10.5C11.1716 10.5 10.5 11.1716 10.5 12C10.5 12.8284 11.1716 13.5 12 13.5Z" fill="black"/>
<path fill-rule="evenodd" clip-rule="evenodd" d="M12 22C12.5523 22 13 21.5523 13 21V19.9346C13.7069 19.8455 14.4005 19.6644 15.0615 19.3906C16.0321 18.9886 16.9144 18.4 17.6572 17.6572C18.4 16.9144 18.9886 16.0321 19.3906 15.0615C19.6644 14.4005 19.8455 13.7069 19.9346 13H21C21.5523 13 22 12.5523 22 12C22 11.4477 21.5523 11 21 11H19.9346C19.8455 10.2931 19.6644 9.59946 19.3906 8.93848C18.9886 7.96795 18.4 7.08559 17.6572 6.34277C16.9144 5.59995 16.0321 5.01141 15.0615 4.60938C14.4006 4.3356 13.7068 4.1555 13 4.06641V3C13 2.44772 12.5523 2 12 2C11.4477 2 11 2.44772 11 3V4.06641C10.2932 4.1555 9.59942 4.3356 8.93848 4.60938C7.96795 5.01141 7.08559 5.59995 6.34277 6.34277C5.59995 7.08559 5.01141 7.96795 4.60938 8.93848C4.33559 9.59946 4.15452 10.2931 4.06543 11H3C2.44772 11 2 11.4477 2 12C2 12.5523 2.44772 13 3 13H4.06543C4.15452 13.7069 4.33559 14.4005 4.60938 15.0615C5.01141 16.0321 5.59995 16.9144 6.34277 17.6572C7.08559 18.4 7.96795 18.9886 8.93848 19.3906C9.59946 19.6644 10.2931 19.8455 11 19.9346V21C11 21.5523 11.4477 22 12 22ZM11.7051 17.9932C11.0179 17.9593 10.3411 17.8068 9.7041 17.543C8.97615 17.2414 8.31496 16.7993 7.75781 16.2422C7.20066 15.685 6.75856 15.0239 6.45703 14.2959C6.15552 13.568 6 12.7879 6 12L6.00684 11.7051C6.04065 11.0179 6.19319 10.3411 6.45703 9.7041C6.75856 8.97615 7.20066 8.31496 7.75781 7.75781C8.31496 7.20066 8.97615 6.75856 9.7041 6.45703C10.432 6.15552 11.2121 6 12 6C12.7879 6 13.568 6.15552 14.2959 6.45703C15.0239 6.75856 15.685 7.20066 16.2422 7.75781C16.7993 8.31496 17.2414 8.97615 17.543 9.7041C17.8445 10.432 18 11.2121 18 12L17.9932 12.2949C17.9593 12.9821 17.8068 13.6589 17.543 14.2959C17.2414 15.0239 16.7993 15.685 16.2422 16.2422C15.685 16.7993 15.0239 17.2414 14.2959 17.543C13.568 17.8445 12.7879 18 12 18L11.7051 17.9932Z" fill="black"/>
</svg>
