<svg width="16" height="16" viewBox="0 0 16 16" fill="none" xmlns="http://www.w3.org/2000/svg">
<path d="M5.57721 3.13718H5.57906C5.57918 3.28447 5.61558 3.42575 5.68036 3.53038C5.74515 3.63501 5.8331 3.69456 5.92514 3.69612L15.2257 3.69661C15.3182 3.6959 15.4066 3.63644 15.4719 3.53166C15.5371 3.42688 15.5737 3.28506 15.5738 3.13718H15.5754V0.55845C15.5752 0.410269 15.5382 0.268265 15.4727 0.163578C15.4072 0.0588909 15.3183 6.49185e-05 15.2257 0H5.92514C5.83243 6.53387e-05 5.74352 0.0590267 5.67797 0.163927C5.61241 0.268827 5.57556 0.411084 5.57552 0.559436C5.57552 0.569051 5.57706 0.578174 5.57737 0.58779L5.57721 3.13718ZM15.2256 6.15182H5.92514C5.83243 6.15188 5.74352 6.21084 5.67797 6.31574C5.61241 6.42065 5.57556 6.5629 5.57552 6.71125C5.57552 6.72087 5.57706 6.72999 5.57737 6.73961V9.289H5.57922C5.57933 9.43628 5.61573 9.57756 5.68052 9.6822C5.7453 9.78683 5.83325 9.84638 5.9253 9.84794L15.2259 9.84843C15.3183 9.84771 15.4068 9.78825 15.472 9.68348C15.5372 9.5787 15.5739 9.43688 15.574 9.289H15.5755V6.71027C15.5753 6.562 15.5384 6.41992 15.4727 6.31522C15.4071 6.21052 15.3182 6.15175 15.2256 6.15182ZM15.2256 12.3034H5.92514C5.83243 12.3035 5.74352 12.3624 5.67797 12.4673C5.61241 12.5722 5.57556 12.7145 5.57552 12.8628C5.57552 12.8724 5.57706 12.8816 5.57737 12.8912V15.4406H5.57922C5.57933 15.5879 5.61573 15.7291 5.68052 15.8338C5.7453 15.9384 5.83325 15.998 5.9253 15.9995L15.2259 16C15.3183 15.9993 15.4068 15.9398 15.4721 15.835C15.5373 15.7301 15.5739 15.5882 15.574 15.4403H15.5755V12.8616C15.5753 12.7134 15.5383 12.5714 15.4727 12.4667C15.4071 12.3621 15.3182 12.3033 15.2256 12.3034Z" fill="black"/>
<path d="M0.000677967 3.13718C0.00072457 3.28447 0.0160232 3.42575 0.0419375 3.53038C0.0678517 3.63501 0.103032 3.69456 0.13985 3.69612L3.86009 3.69661C3.89706 3.6959 3.93245 3.63644 3.95854 3.53166C3.98463 3.42688 3.99929 3.28506 3.99932 3.13718L3.99994 0.55845C3.99986 0.410269 3.98509 0.268265 3.95887 0.163578C3.93266 0.0588909 3.89713 6.49185e-05 3.86009 0H0.13985C0.102765 6.53387e-05 0.0672027 0.0590267 0.0409792 0.163927C0.0147558 0.268827 1.63337e-05 0.411084 0 0.559436C0 0.569051 0.000616298 0.578174 0.000739569 0.58779L0.000677967 3.13718ZM3.86003 6.15182H0.13985C0.102765 6.15188 0.0672027 6.21084 0.0409792 6.31574C0.0147558 6.42065 1.63337e-05 6.5629 0 6.71125C0 6.72087 0.000616298 6.72999 0.000739569 6.73961V9.289C0.000786172 9.43628 0.0160848 9.57756 0.0419991 9.6822C0.0679133 9.78683 0.103094 9.84638 0.139912 9.84794L3.86015 9.84843C3.89712 9.84771 3.93251 9.78825 3.9586 9.68348C3.98469 9.5787 3.99935 9.43688 3.99938 9.289L4 6.71027C3.99992 6.562 3.98513 6.41992 3.95889 6.31522C3.93265 6.21052 3.89709 6.15175 3.86003 6.15182ZM3.86003 12.3034H0.13985C0.102765 12.3035 0.0672027 12.3624 0.0409792 12.4673C0.0147558 12.5722 1.63337e-05 12.7145 0 12.8628C0 12.8724 0.000616298 12.8816 0.000739569 12.8912V15.4406C0.000786172 15.5879 0.0160848 15.7291 0.0419991 15.8338C0.0679133 15.9384 0.103094 15.998 0.139912 15.9995L3.86015 16C3.89713 15.9993 3.93253 15.9398 3.95862 15.835C3.98471 15.7301 3.99937 15.5882 3.99938 15.4403L4 12.8616C3.9999 12.7134 3.98511 12.5714 3.95887 12.4667C3.93263 12.3621 3.89708 12.3033 3.86003 12.3034Z" fill="black"/>
</svg>
